<svg width="52" height="48" viewBox="0 0 52 48" fill="none" xmlns="http://www.w3.org/2000/svg">
<g clip-path="url(#clip0_515_7043)">
<path d="M42.6936 5.35412C40.6082 4.54599 37.0677 5.69084 35.5581 6.36429L38.6951 11.7181C40.7791 13.4438 45.5037 16.8952 47.7305 16.8952C49.9573 16.8952 46.8027 24.825 47.7305 25.9614C49.2401 23.5707 51.1856 19.2792 51.0442 16.8952C50.8675 13.9152 45.3004 6.36429 42.6936 5.35412Z" fill="black"/>
<path d="M12.684 10.8214L3.9209 8.79969V4.0981L10.2871 3.09509C13.5405 3.54958 20.1585 4.45856 20.6034 4.45856C21.0483 4.45856 15.5092 8.70044 12.684 10.8214Z" fill="#D9D9D9"/>
<path d="M44.2248 17.9873C42.4541 10.5024 36.6994 6.28373 34.0434 5.11003C30.4216 2.75089 15.6779 2.7422 11.4122 4.2915C7.14649 5.84079 4.24375 19.2951 9.33444 25.955C14.4251 32.615 9.6765 38.8323 20.9243 45.9751C32.1721 53.118 36.3372 39.2548 38.3091 36.8605C40.281 34.4661 46.4381 27.3434 44.2248 17.9873Z" fill="white"/>
<ellipse cx="19.0488" cy="24.4498" rx="3.06687" ry="3.06678" fill="black"/>
<ellipse cx="35.7363" cy="25.8129" rx="3.06687" ry="3.06678" fill="black"/>
<mask id="mask0_515_7043" style="mask-type:alpha" maskUnits="userSpaceOnUse" x="6" y="3" width="39" height="45">
<path d="M44.225 17.9873C42.4543 10.5024 36.6996 6.28375 34.0436 5.11004C30.4218 2.7509 14.3449 2.89677 10.0791 4.44606C5.81344 5.99535 4.24398 19.2951 9.33466 25.9551C14.4253 32.615 9.67672 38.8323 20.9245 45.9751C32.1723 53.118 36.3374 39.2548 38.3093 36.8605C40.2812 34.4661 46.4383 27.3434 44.225 17.9873Z" fill="white"/>
</mask>
<g mask="url(#mask0_515_7043)">
<ellipse cx="27.2076" cy="41.1468" rx="10.4468" ry="9.07377" fill="#F1F1F1" fill-opacity="0.8"/>
<path d="M29.5969 16.116C30.949 13.5567 36.532 9.14758 39.1545 7.26294L53.7022 9.67742L55.6741 36.458C51.5962 37.2897 42.9776 38.8846 41.1264 38.6109C38.8124 38.2689 31.1261 28.953 28.8926 25.4721C26.6592 21.9913 27.9067 19.3152 29.5969 16.116Z" fill="black" fill-opacity="0.5"/>
<path d="M22.0915 19.4159C13.8216 15.8545 8.26815 28.8323 8.26815 29.114C7.80746 30.2005 9.23398 31.9913 11.1857 32.3333C13.1375 32.6754 17.7855 31.287 19.7977 30.6029C21.8098 29.9188 30.3613 22.9772 22.0915 19.4159Z" fill="black" fill-opacity="0.5"/>
</g>
<ellipse cx="27.2171" cy="39.2385" rx="4.26442" ry="3.44648" fill="black"/>
<ellipse cx="27.0816" cy="45.291" rx="2.23346" ry="0.563379" fill="black"/>
<path d="M34.9282 25.259C34.5619 25.259 34.265 24.9621 34.265 24.5959C34.265 24.2297 34.5619 23.9328 34.9282 23.9328C35.2944 23.9328 35.5913 24.2297 35.5913 24.5959C35.5913 24.9621 35.2944 25.259 34.9282 25.259Z" fill="white" stroke="white" stroke-width="0.08"/>
<path d="M20.6257 24.0128C20.2971 24.0128 20.0307 23.7464 20.0307 23.4179C20.0307 23.0893 20.2971 22.8229 20.6257 22.8229C20.9543 22.8229 21.2207 23.0893 21.2207 23.4179C21.2207 23.7464 20.9543 24.0128 20.6257 24.0128Z" fill="white" stroke="white" stroke-width="0.08"/>
<path d="M5.49273 0.316272C8.24103 -1.38785 22.3347 4.30577 20.7888 5.24226C20.7888 5.74757 10.7744 5.42332 6.64424 6.14755C1.48157 7.05285 5.49273 21.9373 4.82099 21.9373C4.14926 21.9373 1.76947 14.3753 1.09774 12.7777C0.426021 11.18 2.05735 2.44643 5.49273 0.316272Z" fill="#7F7F7F"/>
</g>
<defs>
<clipPath id="clip0_515_7043">
<rect width="50.1013" height="48.0086" fill="white" transform="translate(0.949219)"/>
</clipPath>
</defs>
</svg>
